<?xml version="1.0" standalone="no"?>
<!DOCTYPE svg PUBLIC "-//W3C//DTD SVG 20010904//EN"
 "http://www.w3.org/TR/2001/REC-SVG-20010904/DTD/svg10.dtd">
<svg version="1.0" xmlns="http://www.w3.org/2000/svg"
 width="1685.000000pt" height="862.000000pt" viewBox="0 0 1685.000000 862.000000"
 preserveAspectRatio="xMidYMid meet">

<g transform="translate(0.000000,862.000000) scale(0.100000,-0.100000)"
fill="#000000" stroke="none">
<path d="M10432 7797 l-92 -92 0 -1503 0 -1502 170 0 170 0 2 708 3 707 218 3
217 2 0 -710 0 -710 175 0 175 0 0 1503 0 1503 -94 92 -93 92 -379 0 -379 0
-93 -93z m683 -281 c15 -22 16 -77 9 -535 l-7 -511 -219 0 -218 0 0 513 c0
448 2 515 16 535 15 21 20 22 209 22 l195 0 15 -24z"/>
<path d="M11935 7868 c-3 -13 -4 -729 -3 -1593 l3 -1570 173 -3 172 -2 0 710
0 711 131 -3 131 -3 89 -145 88 -145 1 -562 0 -563 175 0 175 0 0 600 0 599
-82 138 c-44 76 -96 164 -115 195 -29 50 -32 61 -22 80 7 13 59 102 115 199
l104 175 0 602 0 602 -175 0 -175 0 0 -561 0 -561 -87 -149 -88 -148 -132 -1
-133 0 0 710 0 710 -170 0 c-168 0 -170 0 -175 -22z"/>
<path d="M3720 7699 c0 -11 7 -48 15 -82 17 -73 67 -346 73 -399 2 -23 8 -35
15 -31 6 4 7 1 3 -6 -10 -15 34 -253 48 -262 5 -4 6 -14 3 -23 -4 -9 -4 -23
-1 -31 5 -13 327 -15 2810 -15 l2804 0 -2 433 -3 432 -2882 2 -2883 3 0 -21z
m117 -371 c-3 -8 -6 -5 -6 6 -1 11 2 17 5 13 3 -3 4 -12 1 -19z m-10 -60 c-3
-8 -6 -5 -6 6 -1 11 2 17 5 13 3 -3 4 -12 1 -19z"/>
<path d="M4054 5917 c7 -23 11 -48 8 -55 -2 -6 1 -12 7 -12 6 0 8 -6 5 -13 -2
-7 3 -49 12 -92 9 -44 16 -88 16 -97 -1 -10 3 -18 8 -18 5 0 7 -6 4 -13 -3 -8
0 -34 6 -58 6 -24 12 -56 15 -70 24 -159 70 -386 79 -391 6 -4 1194 -7 2641
-5 l2630 2 0 430 0 430 -2722 3 -2722 2 13 -43z"/>
<path d="M4380 4168 c5 -18 16 -79 26 -135 9 -57 21 -103 26 -103 5 0 6 -5 3
-11 -4 -6 1 -53 11 -105 13 -63 21 -88 27 -76 4 10 5 3 2 -18 -3 -19 4 -80 15
-135 22 -106 23 -113 35 -187 4 -26 13 -52 20 -58 8 -7 790 -9 2476 -8 l2464
3 3 433 2 432 -2559 0 -2559 0 8 -32z m87 -290 c-3 -8 -6 -5 -6 6 -1 11 2 17
5 13 3 -3 4 -12 1 -19z"/>
<path d="M10432 3649 l-92 -91 0 -1407 0 -1406 94 -97 93 -97 374 0 374 -1 97
97 98 98 0 357 0 358 -175 0 -175 0 0 -266 c0 -242 -2 -268 -17 -280 -14 -10
-65 -13 -204 -14 -168 0 -188 2 -202 18 -16 17 -17 117 -17 1234 0 1164 1
1216 18 1231 16 15 45 17 204 17 166 0 187 -2 201 -18 15 -16 17 -51 17 -286
l0 -266 173 2 172 3 3 360 2 359 -92 93 -93 93 -381 0 -381 0 -91 -91z"/>
<path d="M12022 3647 l-92 -94 0 -1496 0 -1496 42 -6 c24 -3 102 -5 173 -3
l130 3 5 708 5 709 215 0 215 0 3 -703 c2 -547 5 -705 15 -711 14 -9 281 -11
315 -2 l22 6 0 1496 0 1495 -92 93 -92 94 -386 0 -386 0 -92 -93z m680 -264
c17 -15 18 -45 18 -535 l0 -518 -27 -1 c-16 -1 -113 -1 -218 -1 l-190 0 -3
518 c-2 471 -1 519 14 536 15 16 35 18 202 18 159 0 188 -2 204 -17z"/>
<path d="M13530 2145 l0 -1595 175 0 175 0 0 535 0 535 68 0 67 0 134 -473
c74 -259 142 -500 153 -534 l19 -63 169 0 c118 0 170 3 170 11 0 12 -252 916
-276 988 -22 69 -21 71 39 71 l54 0 96 98 97 97 0 869 0 869 -96 93 -95 94
-475 0 -474 0 0 -1595z m782 1228 c17 -15 18 -50 18 -693 0 -632 -1 -678 -17
-693 -15 -13 -52 -16 -223 -18 l-205 -2 -3 711 -2 712 207 0 c178 0 209 -2
225 -17z"/>
<path d="M15120 3570 l0 -170 260 0 259 0 3 -507 c2 -280 5 -917 6 -1417 1
-499 5 -912 8 -917 3 -5 78 -8 167 -6 l162 2 5 1420 5 1420 258 3 257 2 0 170
0 170 -695 0 -695 0 0 -170z"/>
<path d="M3544 1585 c-21 -33 -62 -187 -69 -261 -8 -88 17 -308 45 -389 28
-82 43 -115 53 -115 5 0 5 -4 2 -10 -3 -5 -1 -10 6 -10 7 0 9 -3 6 -7 -23 -23
176 -272 208 -260 9 4 12 1 8 -9 -6 -16 15 -46 27 -39 4 3 11 -2 14 -11 4 -10
13 -13 28 -9 16 4 19 3 9 -3 -10 -7 -10 -11 -1 -17 7 -4 17 -1 22 6 8 11 9 10
4 -3 -7 -22 13 -35 26 -17 7 11 8 9 6 -6 -3 -18 4 -21 30 -13 4 2 7 -2 7 -7 0
-5 -4 -9 -10 -7 -7 2 -7 0 0 -7 17 -16 165 -72 175 -66 6 3 10 2 10 -4 0 -19
152 -45 265 -45 132 0 176 4 169 16 -3 5 5 6 19 3 27 -7 177 39 189 58 4 7 8
9 8 5 0 -4 13 -2 30 3 17 6 27 16 23 22 -4 7 0 8 11 4 10 -4 15 -3 11 3 -5 8
8 14 18 8 8 -6 46 25 41 34 -4 7 -2 8 5 4 13 -8 67 28 114 76 28 29 36 45 15
32 -7 -4 -8 -3 -4 5 4 6 12 9 17 6 5 -4 9 -1 9 5 0 6 4 9 8 6 21 -13 171 189
175 234 1 11 4 20 8 20 6 0 38 66 43 90 2 8 8 28 14 43 7 15 11 31 10 35 -1 4
5 27 12 52 9 30 14 96 13 195 0 134 -3 160 -27 240 -15 50 -33 98 -39 108 -11
16 -61 18 -881 20 -859 2 -869 2 -882 -18z m50 -733 c3 -5 -1 -9 -9 -9 -8 0
-12 4 -9 9 3 4 7 8 9 8 2 0 6 -4 9 -8z m41 -112 c4 0 4 8 1 17 -4 10 -4 14 1
10 4 -5 8 -22 9 -38 l2 -30 -24 33 c-13 17 -24 34 -24 37 0 3 7 -2 14 -11 7
-10 17 -18 21 -18z m1555 -50 c-6 -11 -13 -20 -16 -20 -2 0 0 9 6 20 6 11 13
20 16 20 2 0 0 -9 -6 -20z m-23 -52 c-3 -8 -6 -5 -6 6 -1 11 2 17 5 13 3 -3 4
-12 1 -19z m-169 -155 c-12 -15 -22 -18 -13 -4 3 5 -3 12 -12 14 -10 3 -6 4 9
4 21 -1 24 -4 16 -14z m-83 -53 c3 -6 -1 -7 -9 -4 -18 7 -21 14 -7 14 6 0 13
-4 16 -10z m-74 -28 c-7 -2 -18 1 -23 6 -8 8 -4 9 13 5 13 -4 18 -8 10 -11z
m-736 -41 c3 -5 2 -12 -3 -15 -5 -3 -9 1 -9 9 0 17 3 19 12 6z m515 -51 c8 -5
11 -10 5 -10 -5 0 -17 5 -25 10 -8 5 -10 10 -5 10 6 0 17 -5 25 -10z"/>
<path d="M7944 1602 l-860 -2 -22 -63 c-12 -34 -29 -93 -37 -132 -15 -73 -21
-230 -7 -221 4 2 6 -13 4 -34 -9 -90 64 -337 96 -325 12 4 13 3 2 -9 -19 -24
65 -148 181 -266 83 -85 102 -100 115 -89 12 10 13 9 8 -6 -6 -15 -4 -16 16
-5 12 7 20 7 16 2 -3 -6 -3 -12 1 -15 5 -2 1 -2 -7 0 -30 7 37 -38 100 -68
184 -86 364 -114 550 -86 82 12 109 20 104 29 -4 6 1 8 13 4 28 -9 117 30 107
46 -5 8 0 7 11 -2 15 -12 17 -12 10 -1 -6 11 -4 13 7 8 20 -7 56 17 40 27 -6
4 -21 2 -33 -4 -22 -12 -32 -8 -35 15 -2 12 2 12 17 4 11 -5 24 -7 29 -4 5 3
18 0 28 -6 45 -28 266 152 253 206 -2 6 1 7 5 3 4 -4 14 -2 23 4 10 8 8 3 -4
-13 -11 -14 -3 -7 17 15 20 22 36 42 36 45 -2 13 15 41 21 36 11 -6 94 156
120 234 33 98 54 252 47 351 -11 149 -59 314 -93 321 -10 2 -405 3 -879 1z
m903 -614 c-3 -8 -6 -5 -6 6 -1 11 2 17 5 13 3 -3 4 -12 1 -19z m-10 -120 c-3
-8 -6 -5 -6 6 -1 11 2 17 5 13 3 -3 4 -12 1 -19z m-36 -75 c-12 -20 -14 -14
-5 12 4 9 9 14 11 11 3 -2 0 -13 -6 -23z m-1632 -37 c9 -11 9 -16 -1 -22 -7
-4 -10 -4 -6 1 4 4 3 14 -3 22 -6 7 -9 13 -6 13 2 0 10 -6 16 -14z m1592 -13
c13 -16 12 -17 -3 -4 -10 7 -18 15 -18 17 0 8 8 3 21 -13z m-1518 -103 c9 -11
13 -20 7 -20 -5 0 -14 9 -20 20 -6 11 -9 20 -8 20 2 0 11 -9 21 -20z m43 -29
c-4 -6 -13 -11 -19 -11 -8 0 -7 3 2 9 8 5 10 14 6 22 -6 11 -5 11 5 2 7 -6 9
-16 6 -22z m54 -41 c8 -5 11 -10 5 -10 -5 0 -17 5 -25 10 -8 5 -10 10 -5 10 6
0 17 -5 25 -10z m25 -58 c-3 -3 -11 0 -18 7 -9 10 -8 11 6 5 10 -3 15 -9 12
-12z m1225 4 c0 -2 -7 -9 -15 -16 -13 -11 -14 -10 -9 4 5 14 24 23 24 12z
m-65 -46 c3 -5 1 -10 -4 -10 -6 0 -11 5 -11 10 0 6 2 10 4 10 3 0 8 -4 11 -10z
m-1026 -44 c9 -11 9 -16 -1 -22 -7 -4 -10 -4 -6 1 4 4 3 14 -3 22 -6 7 -9 13
-6 13 2 0 10 -6 16 -14z m51 -20 c0 -2 -9 -6 -20 -9 -11 -3 -18 -1 -14 4 5 9
34 13 34 5z m220 -66 c-8 -5 -19 -10 -25 -10 -5 0 -3 5 5 10 8 5 20 10 25 10
6 0 3 -5 -5 -10z"/>
</g>
</svg>
